<mxfile host="app.diagrams.net" agent="Mozilla/5.0 (Windows NT 10.0; Win64; x64) AppleWebKit/537.36 (KHTML, like Gecko) Chrome/134.0.0.0 Safari/537.36" version="26.1.1">
  <diagram name="Page-1" id="7xdxzle5571HCooRnZFe">
    <mxGraphModel dx="2442" dy="2382" grid="1" gridSize="10" guides="1" tooltips="1" connect="1" arrows="1" fold="1" page="1" pageScale="1" pageWidth="850" pageHeight="1100" math="0" shadow="0">
      <root>
        <mxCell id="0" />
        <mxCell id="1" parent="0" />
        <mxCell id="Dh3Wkr0duwVxWGDyfR0f-2" value="AWS Account" style="points=[[0,0],[0.25,0],[0.5,0],[0.75,0],[1,0],[1,0.25],[1,0.5],[1,0.75],[1,1],[0.75,1],[0.5,1],[0.25,1],[0,1],[0,0.75],[0,0.5],[0,0.25]];outlineConnect=0;gradientColor=none;html=1;whiteSpace=wrap;fontSize=12;fontStyle=0;container=1;pointerEvents=0;collapsible=0;recursiveResize=0;shape=mxgraph.aws4.group;grIcon=mxgraph.aws4.group_account;strokeColor=#CD2264;fillColor=none;verticalAlign=top;align=left;spacingLeft=30;fontColor=#CD2264;dashed=0;" vertex="1" parent="1">
          <mxGeometry y="-160" width="1340" height="640" as="geometry" />
        </mxCell>
        <mxCell id="Dh3Wkr0duwVxWGDyfR0f-3" value="VPC" style="points=[[0,0],[0.25,0],[0.5,0],[0.75,0],[1,0],[1,0.25],[1,0.5],[1,0.75],[1,1],[0.75,1],[0.5,1],[0.25,1],[0,1],[0,0.75],[0,0.5],[0,0.25]];outlineConnect=0;gradientColor=none;html=1;whiteSpace=wrap;fontSize=12;fontStyle=0;container=1;pointerEvents=0;collapsible=0;recursiveResize=0;shape=mxgraph.aws4.group;grIcon=mxgraph.aws4.group_vpc2;strokeColor=#8C4FFF;fillColor=none;verticalAlign=top;align=left;spacingLeft=30;fontColor=#AAB7B8;dashed=0;" vertex="1" parent="Dh3Wkr0duwVxWGDyfR0f-2">
          <mxGeometry x="50" y="50" width="880" height="510" as="geometry" />
        </mxCell>
        <mxCell id="Dh3Wkr0duwVxWGDyfR0f-4" value="" style="sketch=0;outlineConnect=0;fontColor=#232F3E;gradientColor=none;fillColor=#8C4FFF;strokeColor=none;dashed=0;verticalLabelPosition=bottom;verticalAlign=top;align=center;html=1;fontSize=12;fontStyle=0;aspect=fixed;pointerEvents=1;shape=mxgraph.aws4.internet_gateway;" vertex="1" parent="Dh3Wkr0duwVxWGDyfR0f-3">
          <mxGeometry x="-40" y="240" width="90" height="90" as="geometry" />
        </mxCell>
        <mxCell id="Dh3Wkr0duwVxWGDyfR0f-5" value="" style="rounded=1;arcSize=10;dashed=1;strokeColor=#F59D56;fillColor=none;gradientColor=none;dashPattern=8 4;strokeWidth=2;" vertex="1" parent="Dh3Wkr0duwVxWGDyfR0f-3">
          <mxGeometry x="100" y="20" width="730" height="130" as="geometry" />
        </mxCell>
        <mxCell id="Dh3Wkr0duwVxWGDyfR0f-6" value="" style="rounded=1;arcSize=10;dashed=1;strokeColor=#F59D56;fillColor=none;gradientColor=none;dashPattern=8 4;strokeWidth=2;" vertex="1" parent="Dh3Wkr0duwVxWGDyfR0f-3">
          <mxGeometry x="100" y="290" width="740" height="130" as="geometry" />
        </mxCell>
        <mxCell id="Dh3Wkr0duwVxWGDyfR0f-8" value="us-east-1b" style="text;html=1;align=center;verticalAlign=middle;resizable=0;points=[];autosize=1;strokeColor=none;fillColor=none;" vertex="1" parent="Dh3Wkr0duwVxWGDyfR0f-3">
          <mxGeometry x="390" y="320" width="80" height="30" as="geometry" />
        </mxCell>
        <mxCell id="Dh3Wkr0duwVxWGDyfR0f-10" value="Public subnet" style="points=[[0,0],[0.25,0],[0.5,0],[0.75,0],[1,0],[1,0.25],[1,0.5],[1,0.75],[1,1],[0.75,1],[0.5,1],[0.25,1],[0,1],[0,0.75],[0,0.5],[0,0.25]];outlineConnect=0;gradientColor=none;html=1;whiteSpace=wrap;fontSize=12;fontStyle=0;container=1;pointerEvents=0;collapsible=0;recursiveResize=0;shape=mxgraph.aws4.group;grIcon=mxgraph.aws4.group_security_group;grStroke=0;strokeColor=#7AA116;fillColor=#F2F6E8;verticalAlign=top;align=left;spacingLeft=30;fontColor=#248814;dashed=0;" vertex="1" parent="Dh3Wkr0duwVxWGDyfR0f-3">
          <mxGeometry x="130" y="70" width="150" height="290" as="geometry" />
        </mxCell>
        <mxCell id="Dh3Wkr0duwVxWGDyfR0f-88" value="" style="outlineConnect=0;dashed=0;verticalLabelPosition=bottom;verticalAlign=top;align=center;html=1;shape=mxgraph.aws3.vpc_nat_gateway;fillColor=#F58536;gradientColor=none;" vertex="1" parent="Dh3Wkr0duwVxWGDyfR0f-10">
          <mxGeometry x="30" y="70" width="69" height="72" as="geometry" />
        </mxCell>
        <mxCell id="Dh3Wkr0duwVxWGDyfR0f-16" value="Subnet" style="sketch=0;outlineConnect=0;html=1;whiteSpace=wrap;fontSize=12;fontStyle=0;shape=mxgraph.aws4.group;grIcon=mxgraph.aws4.group_subnet;strokeColor=#b85450;fillColor=#f8cecc;verticalAlign=top;align=left;spacingLeft=30;dashed=0;" vertex="1" parent="Dh3Wkr0duwVxWGDyfR0f-3">
          <mxGeometry x="580" y="70" width="150" height="280" as="geometry" />
        </mxCell>
        <mxCell id="Dh3Wkr0duwVxWGDyfR0f-17" value="" style="outlineConnect=0;dashed=0;verticalLabelPosition=bottom;verticalAlign=top;align=center;html=1;shape=mxgraph.aws3.route_table;fillColor=#F58536;gradientColor=none;" vertex="1" parent="Dh3Wkr0duwVxWGDyfR0f-3">
          <mxGeometry x="180" width="75" height="69" as="geometry" />
        </mxCell>
        <mxCell id="Dh3Wkr0duwVxWGDyfR0f-11" value="Private subnet" style="points=[[0,0],[0.25,0],[0.5,0],[0.75,0],[1,0],[1,0.25],[1,0.5],[1,0.75],[1,1],[0.75,1],[0.5,1],[0.25,1],[0,1],[0,0.75],[0,0.5],[0,0.25]];outlineConnect=0;gradientColor=none;html=1;whiteSpace=wrap;fontSize=12;fontStyle=0;container=1;pointerEvents=0;collapsible=0;recursiveResize=0;shape=mxgraph.aws4.group;grIcon=mxgraph.aws4.group_security_group;grStroke=0;strokeColor=#00A4A6;fillColor=#E6F6F7;verticalAlign=top;align=left;spacingLeft=30;fontColor=#147EBA;dashed=0;" vertex="1" parent="Dh3Wkr0duwVxWGDyfR0f-3">
          <mxGeometry x="370" y="75" width="150" height="280" as="geometry" />
        </mxCell>
        <mxCell id="Dh3Wkr0duwVxWGDyfR0f-21" value="" style="sketch=0;outlineConnect=0;fontColor=#232F3E;gradientColor=none;fillColor=#8C4FFF;strokeColor=none;dashed=0;verticalLabelPosition=bottom;verticalAlign=top;align=center;html=1;fontSize=12;fontStyle=0;aspect=fixed;pointerEvents=1;shape=mxgraph.aws4.route_table;" vertex="1" parent="Dh3Wkr0duwVxWGDyfR0f-3">
          <mxGeometry x="470" y="-1" width="78" height="76" as="geometry" />
        </mxCell>
        <mxCell id="Dh3Wkr0duwVxWGDyfR0f-7" value="us-east-1a" style="text;html=1;align=center;verticalAlign=middle;resizable=0;points=[];autosize=1;strokeColor=none;fillColor=none;" vertex="1" parent="Dh3Wkr0duwVxWGDyfR0f-3">
          <mxGeometry x="350" y="20" width="80" height="30" as="geometry" />
        </mxCell>
        <mxCell id="Dh3Wkr0duwVxWGDyfR0f-22" value="Route table" style="sketch=0;outlineConnect=0;fontColor=#232F3E;gradientColor=none;strokeColor=#232F3E;fillColor=#ffffff;dashed=0;verticalLabelPosition=bottom;verticalAlign=top;align=center;html=1;fontSize=12;fontStyle=0;aspect=fixed;shape=mxgraph.aws4.resourceIcon;resIcon=mxgraph.aws4.route_table;" vertex="1" parent="Dh3Wkr0duwVxWGDyfR0f-3">
          <mxGeometry x="680" y="-5" width="75" height="75" as="geometry" />
        </mxCell>
        <mxCell id="Dh3Wkr0duwVxWGDyfR0f-23" value="us-east-1b" style="text;html=1;align=center;verticalAlign=middle;resizable=0;points=[];autosize=1;strokeColor=none;fillColor=none;" vertex="1" parent="Dh3Wkr0duwVxWGDyfR0f-3">
          <mxGeometry x="370" y="390" width="80" height="30" as="geometry" />
        </mxCell>
        <mxCell id="Dh3Wkr0duwVxWGDyfR0f-69" value="VPC" style="points=[[0,0],[0.25,0],[0.5,0],[0.75,0],[1,0],[1,0.25],[1,0.5],[1,0.75],[1,1],[0.75,1],[0.5,1],[0.25,1],[0,1],[0,0.75],[0,0.5],[0,0.25]];outlineConnect=0;gradientColor=none;html=1;whiteSpace=wrap;fontSize=12;fontStyle=0;container=1;pointerEvents=0;collapsible=0;recursiveResize=0;shape=mxgraph.aws4.group;grIcon=mxgraph.aws4.group_vpc2;strokeColor=#8C4FFF;fillColor=none;verticalAlign=top;align=left;spacingLeft=30;fontColor=#AAB7B8;dashed=0;" vertex="1" parent="Dh3Wkr0duwVxWGDyfR0f-2">
          <mxGeometry x="1000" y="60" width="300" height="500" as="geometry" />
        </mxCell>
        <mxCell id="Dh3Wkr0duwVxWGDyfR0f-87" value="" style="outlineConnect=0;dashed=0;verticalLabelPosition=bottom;verticalAlign=top;align=center;html=1;shape=mxgraph.aws3.route_table;fillColor=#F58536;gradientColor=none;" vertex="1" parent="Dh3Wkr0duwVxWGDyfR0f-69">
          <mxGeometry x="107" y="40" width="75" height="69" as="geometry" />
        </mxCell>
        <mxCell id="Dh3Wkr0duwVxWGDyfR0f-70" value="" style="outlineConnect=0;dashed=0;verticalLabelPosition=bottom;verticalAlign=top;align=center;html=1;shape=mxgraph.aws3.vpc_peering;fillColor=#F58534;gradientColor=none;" vertex="1" parent="Dh3Wkr0duwVxWGDyfR0f-2">
          <mxGeometry x="931" y="269" width="69" height="72" as="geometry" />
        </mxCell>
        <mxCell id="Dh3Wkr0duwVxWGDyfR0f-73" value="&lt;font style=&quot;font-size: 9px;&quot;&gt;PCX-12GTRS98&lt;/font&gt;" style="text;html=1;align=center;verticalAlign=middle;resizable=0;points=[];autosize=1;strokeColor=none;fillColor=none;" vertex="1" parent="Dh3Wkr0duwVxWGDyfR0f-2">
          <mxGeometry x="920.5" y="341" width="90" height="30" as="geometry" />
        </mxCell>
        <mxCell id="Dh3Wkr0duwVxWGDyfR0f-24" value="" style="shape=table;startSize=0;container=1;collapsible=0;childLayout=tableLayout;fontSize=16;" vertex="1" parent="1">
          <mxGeometry x="210" y="-340" width="250" height="150" as="geometry" />
        </mxCell>
        <mxCell id="Dh3Wkr0duwVxWGDyfR0f-25" value="" style="shape=tableRow;horizontal=0;startSize=0;swimlaneHead=0;swimlaneBody=0;strokeColor=inherit;top=0;left=0;bottom=0;right=0;collapsible=0;dropTarget=0;fillColor=none;points=[[0,0.5],[1,0.5]];portConstraint=eastwest;fontSize=16;" vertex="1" parent="Dh3Wkr0duwVxWGDyfR0f-24">
          <mxGeometry width="250" height="47" as="geometry" />
        </mxCell>
        <mxCell id="Dh3Wkr0duwVxWGDyfR0f-26" value="CIDR" style="shape=partialRectangle;html=1;whiteSpace=wrap;connectable=0;strokeColor=inherit;overflow=hidden;fillColor=none;top=0;left=0;bottom=0;right=0;pointerEvents=1;fontSize=16;" vertex="1" parent="Dh3Wkr0duwVxWGDyfR0f-25">
          <mxGeometry width="83" height="47" as="geometry">
            <mxRectangle width="83" height="47" as="alternateBounds" />
          </mxGeometry>
        </mxCell>
        <mxCell id="Dh3Wkr0duwVxWGDyfR0f-27" value="Target" style="shape=partialRectangle;html=1;whiteSpace=wrap;connectable=0;strokeColor=inherit;overflow=hidden;fillColor=none;top=0;left=0;bottom=0;right=0;pointerEvents=1;fontSize=16;" vertex="1" parent="Dh3Wkr0duwVxWGDyfR0f-25">
          <mxGeometry x="83" width="84" height="47" as="geometry">
            <mxRectangle width="84" height="47" as="alternateBounds" />
          </mxGeometry>
        </mxCell>
        <mxCell id="Dh3Wkr0duwVxWGDyfR0f-28" value="" style="shape=partialRectangle;html=1;whiteSpace=wrap;connectable=0;strokeColor=inherit;overflow=hidden;fillColor=none;top=0;left=0;bottom=0;right=0;pointerEvents=1;fontSize=16;" vertex="1" parent="Dh3Wkr0duwVxWGDyfR0f-25">
          <mxGeometry x="167" width="83" height="47" as="geometry">
            <mxRectangle width="83" height="47" as="alternateBounds" />
          </mxGeometry>
        </mxCell>
        <mxCell id="Dh3Wkr0duwVxWGDyfR0f-29" value="" style="shape=tableRow;horizontal=0;startSize=0;swimlaneHead=0;swimlaneBody=0;strokeColor=inherit;top=0;left=0;bottom=0;right=0;collapsible=0;dropTarget=0;fillColor=none;points=[[0,0.5],[1,0.5]];portConstraint=eastwest;fontSize=16;" vertex="1" parent="Dh3Wkr0duwVxWGDyfR0f-24">
          <mxGeometry y="47" width="250" height="46" as="geometry" />
        </mxCell>
        <mxCell id="Dh3Wkr0duwVxWGDyfR0f-30" value="10.0.0.0/16" style="shape=partialRectangle;html=1;whiteSpace=wrap;connectable=0;strokeColor=inherit;overflow=hidden;fillColor=none;top=0;left=0;bottom=0;right=0;pointerEvents=1;fontSize=16;" vertex="1" parent="Dh3Wkr0duwVxWGDyfR0f-29">
          <mxGeometry width="83" height="46" as="geometry">
            <mxRectangle width="83" height="46" as="alternateBounds" />
          </mxGeometry>
        </mxCell>
        <mxCell id="Dh3Wkr0duwVxWGDyfR0f-31" value="Local" style="shape=partialRectangle;html=1;whiteSpace=wrap;connectable=0;strokeColor=inherit;overflow=hidden;fillColor=none;top=0;left=0;bottom=0;right=0;pointerEvents=1;fontSize=16;" vertex="1" parent="Dh3Wkr0duwVxWGDyfR0f-29">
          <mxGeometry x="83" width="84" height="46" as="geometry">
            <mxRectangle width="84" height="46" as="alternateBounds" />
          </mxGeometry>
        </mxCell>
        <mxCell id="Dh3Wkr0duwVxWGDyfR0f-32" value="" style="shape=partialRectangle;html=1;whiteSpace=wrap;connectable=0;strokeColor=inherit;overflow=hidden;fillColor=none;top=0;left=0;bottom=0;right=0;pointerEvents=1;fontSize=16;" vertex="1" parent="Dh3Wkr0duwVxWGDyfR0f-29">
          <mxGeometry x="167" width="83" height="46" as="geometry">
            <mxRectangle width="83" height="46" as="alternateBounds" />
          </mxGeometry>
        </mxCell>
        <mxCell id="Dh3Wkr0duwVxWGDyfR0f-33" value="" style="shape=tableRow;horizontal=0;startSize=0;swimlaneHead=0;swimlaneBody=0;strokeColor=inherit;top=0;left=0;bottom=0;right=0;collapsible=0;dropTarget=0;fillColor=none;points=[[0,0.5],[1,0.5]];portConstraint=eastwest;fontSize=16;" vertex="1" parent="Dh3Wkr0duwVxWGDyfR0f-24">
          <mxGeometry y="93" width="250" height="57" as="geometry" />
        </mxCell>
        <mxCell id="Dh3Wkr0duwVxWGDyfR0f-34" value="0.0.0.0/0&lt;div&gt;&lt;font style=&quot;font-size: 12px;&quot;&gt;&lt;b&gt;172.31.0.0/16&lt;/b&gt;&lt;/font&gt;&lt;/div&gt;" style="shape=partialRectangle;html=1;whiteSpace=wrap;connectable=0;strokeColor=inherit;overflow=hidden;fillColor=none;top=0;left=0;bottom=0;right=0;pointerEvents=1;fontSize=16;" vertex="1" parent="Dh3Wkr0duwVxWGDyfR0f-33">
          <mxGeometry width="83" height="57" as="geometry">
            <mxRectangle width="83" height="57" as="alternateBounds" />
          </mxGeometry>
        </mxCell>
        <mxCell id="Dh3Wkr0duwVxWGDyfR0f-35" value="IGW&lt;div&gt;&lt;b&gt;&lt;font style=&quot;font-size: 14px;&quot;&gt;pcx-fd7671&lt;/font&gt;&lt;/b&gt;&lt;/div&gt;" style="shape=partialRectangle;html=1;whiteSpace=wrap;connectable=0;strokeColor=inherit;overflow=hidden;fillColor=none;top=0;left=0;bottom=0;right=0;pointerEvents=1;fontSize=16;" vertex="1" parent="Dh3Wkr0duwVxWGDyfR0f-33">
          <mxGeometry x="83" width="84" height="57" as="geometry">
            <mxRectangle width="84" height="57" as="alternateBounds" />
          </mxGeometry>
        </mxCell>
        <mxCell id="Dh3Wkr0duwVxWGDyfR0f-36" value="" style="shape=partialRectangle;html=1;whiteSpace=wrap;connectable=0;strokeColor=inherit;overflow=hidden;fillColor=none;top=0;left=0;bottom=0;right=0;pointerEvents=1;fontSize=16;" vertex="1" parent="Dh3Wkr0duwVxWGDyfR0f-33">
          <mxGeometry x="167" width="83" height="57" as="geometry">
            <mxRectangle width="83" height="57" as="alternateBounds" />
          </mxGeometry>
        </mxCell>
        <mxCell id="Dh3Wkr0duwVxWGDyfR0f-53" value="" style="shape=table;startSize=0;container=1;collapsible=0;childLayout=tableLayout;fontSize=16;" vertex="1" parent="1">
          <mxGeometry x="540" y="-330" width="280" height="147" as="geometry" />
        </mxCell>
        <mxCell id="Dh3Wkr0duwVxWGDyfR0f-54" value="" style="shape=tableRow;horizontal=0;startSize=0;swimlaneHead=0;swimlaneBody=0;strokeColor=inherit;top=0;left=0;bottom=0;right=0;collapsible=0;dropTarget=0;fillColor=none;points=[[0,0.5],[1,0.5]];portConstraint=eastwest;fontSize=16;" vertex="1" parent="Dh3Wkr0duwVxWGDyfR0f-53">
          <mxGeometry width="280" height="47" as="geometry" />
        </mxCell>
        <mxCell id="Dh3Wkr0duwVxWGDyfR0f-55" value="CIDR" style="shape=partialRectangle;html=1;whiteSpace=wrap;connectable=0;strokeColor=inherit;overflow=hidden;fillColor=none;top=0;left=0;bottom=0;right=0;pointerEvents=1;fontSize=16;" vertex="1" parent="Dh3Wkr0duwVxWGDyfR0f-54">
          <mxGeometry width="93" height="47" as="geometry">
            <mxRectangle width="93" height="47" as="alternateBounds" />
          </mxGeometry>
        </mxCell>
        <mxCell id="Dh3Wkr0duwVxWGDyfR0f-56" value="Target" style="shape=partialRectangle;html=1;whiteSpace=wrap;connectable=0;strokeColor=inherit;overflow=hidden;fillColor=none;top=0;left=0;bottom=0;right=0;pointerEvents=1;fontSize=16;" vertex="1" parent="Dh3Wkr0duwVxWGDyfR0f-54">
          <mxGeometry x="93" width="94" height="47" as="geometry">
            <mxRectangle width="94" height="47" as="alternateBounds" />
          </mxGeometry>
        </mxCell>
        <mxCell id="Dh3Wkr0duwVxWGDyfR0f-57" value="" style="shape=partialRectangle;html=1;whiteSpace=wrap;connectable=0;strokeColor=inherit;overflow=hidden;fillColor=none;top=0;left=0;bottom=0;right=0;pointerEvents=1;fontSize=16;" vertex="1" parent="Dh3Wkr0duwVxWGDyfR0f-54">
          <mxGeometry x="187" width="93" height="47" as="geometry">
            <mxRectangle width="93" height="47" as="alternateBounds" />
          </mxGeometry>
        </mxCell>
        <mxCell id="Dh3Wkr0duwVxWGDyfR0f-58" value="" style="shape=tableRow;horizontal=0;startSize=0;swimlaneHead=0;swimlaneBody=0;strokeColor=inherit;top=0;left=0;bottom=0;right=0;collapsible=0;dropTarget=0;fillColor=none;points=[[0,0.5],[1,0.5]];portConstraint=eastwest;fontSize=16;" vertex="1" parent="Dh3Wkr0duwVxWGDyfR0f-53">
          <mxGeometry y="47" width="280" height="43" as="geometry" />
        </mxCell>
        <mxCell id="Dh3Wkr0duwVxWGDyfR0f-59" value="10.0.0.0/16" style="shape=partialRectangle;html=1;whiteSpace=wrap;connectable=0;strokeColor=inherit;overflow=hidden;fillColor=none;top=0;left=0;bottom=0;right=0;pointerEvents=1;fontSize=16;" vertex="1" parent="Dh3Wkr0duwVxWGDyfR0f-58">
          <mxGeometry width="93" height="43" as="geometry">
            <mxRectangle width="93" height="43" as="alternateBounds" />
          </mxGeometry>
        </mxCell>
        <mxCell id="Dh3Wkr0duwVxWGDyfR0f-60" value="Local" style="shape=partialRectangle;html=1;whiteSpace=wrap;connectable=0;strokeColor=inherit;overflow=hidden;fillColor=none;top=0;left=0;bottom=0;right=0;pointerEvents=1;fontSize=16;" vertex="1" parent="Dh3Wkr0duwVxWGDyfR0f-58">
          <mxGeometry x="93" width="94" height="43" as="geometry">
            <mxRectangle width="94" height="43" as="alternateBounds" />
          </mxGeometry>
        </mxCell>
        <mxCell id="Dh3Wkr0duwVxWGDyfR0f-61" value="" style="shape=partialRectangle;html=1;whiteSpace=wrap;connectable=0;strokeColor=inherit;overflow=hidden;fillColor=none;top=0;left=0;bottom=0;right=0;pointerEvents=1;fontSize=16;" vertex="1" parent="Dh3Wkr0duwVxWGDyfR0f-58">
          <mxGeometry x="187" width="93" height="43" as="geometry">
            <mxRectangle width="93" height="43" as="alternateBounds" />
          </mxGeometry>
        </mxCell>
        <mxCell id="Dh3Wkr0duwVxWGDyfR0f-62" value="" style="shape=tableRow;horizontal=0;startSize=0;swimlaneHead=0;swimlaneBody=0;strokeColor=inherit;top=0;left=0;bottom=0;right=0;collapsible=0;dropTarget=0;fillColor=none;points=[[0,0.5],[1,0.5]];portConstraint=eastwest;fontSize=16;" vertex="1" parent="Dh3Wkr0duwVxWGDyfR0f-53">
          <mxGeometry y="90" width="280" height="57" as="geometry" />
        </mxCell>
        <mxCell id="Dh3Wkr0duwVxWGDyfR0f-63" value="0.0.0.0/0" style="shape=partialRectangle;html=1;whiteSpace=wrap;connectable=0;strokeColor=inherit;overflow=hidden;fillColor=none;top=0;left=0;bottom=0;right=0;pointerEvents=1;fontSize=16;" vertex="1" parent="Dh3Wkr0duwVxWGDyfR0f-62">
          <mxGeometry width="93" height="57" as="geometry">
            <mxRectangle width="93" height="57" as="alternateBounds" />
          </mxGeometry>
        </mxCell>
        <mxCell id="Dh3Wkr0duwVxWGDyfR0f-64" value="NAT" style="shape=partialRectangle;html=1;whiteSpace=wrap;connectable=0;strokeColor=inherit;overflow=hidden;fillColor=none;top=0;left=0;bottom=0;right=0;pointerEvents=1;fontSize=16;" vertex="1" parent="Dh3Wkr0duwVxWGDyfR0f-62">
          <mxGeometry x="93" width="94" height="57" as="geometry">
            <mxRectangle width="94" height="57" as="alternateBounds" />
          </mxGeometry>
        </mxCell>
        <mxCell id="Dh3Wkr0duwVxWGDyfR0f-65" value="" style="shape=partialRectangle;html=1;whiteSpace=wrap;connectable=0;strokeColor=inherit;overflow=hidden;fillColor=none;top=0;left=0;bottom=0;right=0;pointerEvents=1;fontSize=16;" vertex="1" parent="Dh3Wkr0duwVxWGDyfR0f-62">
          <mxGeometry x="187" width="93" height="57" as="geometry">
            <mxRectangle width="93" height="57" as="alternateBounds" />
          </mxGeometry>
        </mxCell>
        <mxCell id="Dh3Wkr0duwVxWGDyfR0f-66" value="" style="endArrow=classic;html=1;rounded=0;" edge="1" parent="1" source="Dh3Wkr0duwVxWGDyfR0f-17">
          <mxGeometry width="50" height="50" relative="1" as="geometry">
            <mxPoint x="610" y="30" as="sourcePoint" />
            <mxPoint x="301" y="-190" as="targetPoint" />
            <Array as="points" />
          </mxGeometry>
        </mxCell>
        <mxCell id="Dh3Wkr0duwVxWGDyfR0f-71" value="" style="endArrow=classic;html=1;rounded=0;entryX=0.393;entryY=1.009;entryDx=0;entryDy=0;entryPerimeter=0;" edge="1" parent="1" source="Dh3Wkr0duwVxWGDyfR0f-21" target="Dh3Wkr0duwVxWGDyfR0f-62">
          <mxGeometry width="50" height="50" relative="1" as="geometry">
            <mxPoint x="610" y="60" as="sourcePoint" />
            <mxPoint x="660" y="10" as="targetPoint" />
            <Array as="points">
              <mxPoint x="559" y="-150" />
              <mxPoint x="610" y="-150" />
              <mxPoint x="660" y="-150" />
            </Array>
          </mxGeometry>
        </mxCell>
        <mxCell id="Dh3Wkr0duwVxWGDyfR0f-68" value="" style="endArrow=classic;html=1;rounded=0;entryX=0.464;entryY=1.044;entryDx=0;entryDy=0;entryPerimeter=0;" edge="1" parent="1" source="Dh3Wkr0duwVxWGDyfR0f-22" target="Dh3Wkr0duwVxWGDyfR0f-62">
          <mxGeometry width="50" height="50" relative="1" as="geometry">
            <mxPoint x="620" y="40" as="sourcePoint" />
            <mxPoint x="670" y="-10" as="targetPoint" />
            <Array as="points">
              <mxPoint x="780" y="-150" />
              <mxPoint x="670" y="-150" />
            </Array>
          </mxGeometry>
        </mxCell>
        <mxCell id="Dh3Wkr0duwVxWGDyfR0f-74" value="" style="shape=table;startSize=0;container=1;collapsible=0;childLayout=tableLayout;fontSize=16;" vertex="1" parent="1">
          <mxGeometry x="995" y="-338.5" width="280" height="147" as="geometry" />
        </mxCell>
        <mxCell id="Dh3Wkr0duwVxWGDyfR0f-75" value="" style="shape=tableRow;horizontal=0;startSize=0;swimlaneHead=0;swimlaneBody=0;strokeColor=inherit;top=0;left=0;bottom=0;right=0;collapsible=0;dropTarget=0;fillColor=none;points=[[0,0.5],[1,0.5]];portConstraint=eastwest;fontSize=16;" vertex="1" parent="Dh3Wkr0duwVxWGDyfR0f-74">
          <mxGeometry width="280" height="47" as="geometry" />
        </mxCell>
        <mxCell id="Dh3Wkr0duwVxWGDyfR0f-76" value="CIDR" style="shape=partialRectangle;html=1;whiteSpace=wrap;connectable=0;strokeColor=inherit;overflow=hidden;fillColor=none;top=0;left=0;bottom=0;right=0;pointerEvents=1;fontSize=16;" vertex="1" parent="Dh3Wkr0duwVxWGDyfR0f-75">
          <mxGeometry width="93" height="47" as="geometry">
            <mxRectangle width="93" height="47" as="alternateBounds" />
          </mxGeometry>
        </mxCell>
        <mxCell id="Dh3Wkr0duwVxWGDyfR0f-77" value="Target" style="shape=partialRectangle;html=1;whiteSpace=wrap;connectable=0;strokeColor=inherit;overflow=hidden;fillColor=none;top=0;left=0;bottom=0;right=0;pointerEvents=1;fontSize=16;" vertex="1" parent="Dh3Wkr0duwVxWGDyfR0f-75">
          <mxGeometry x="93" width="94" height="47" as="geometry">
            <mxRectangle width="94" height="47" as="alternateBounds" />
          </mxGeometry>
        </mxCell>
        <mxCell id="Dh3Wkr0duwVxWGDyfR0f-78" value="" style="shape=partialRectangle;html=1;whiteSpace=wrap;connectable=0;strokeColor=inherit;overflow=hidden;fillColor=none;top=0;left=0;bottom=0;right=0;pointerEvents=1;fontSize=16;" vertex="1" parent="Dh3Wkr0duwVxWGDyfR0f-75">
          <mxGeometry x="187" width="93" height="47" as="geometry">
            <mxRectangle width="93" height="47" as="alternateBounds" />
          </mxGeometry>
        </mxCell>
        <mxCell id="Dh3Wkr0duwVxWGDyfR0f-79" value="" style="shape=tableRow;horizontal=0;startSize=0;swimlaneHead=0;swimlaneBody=0;strokeColor=inherit;top=0;left=0;bottom=0;right=0;collapsible=0;dropTarget=0;fillColor=none;points=[[0,0.5],[1,0.5]];portConstraint=eastwest;fontSize=16;" vertex="1" parent="Dh3Wkr0duwVxWGDyfR0f-74">
          <mxGeometry y="47" width="280" height="43" as="geometry" />
        </mxCell>
        <mxCell id="Dh3Wkr0duwVxWGDyfR0f-80" value="10.0.0.0/16" style="shape=partialRectangle;html=1;whiteSpace=wrap;connectable=0;strokeColor=inherit;overflow=hidden;fillColor=none;top=0;left=0;bottom=0;right=0;pointerEvents=1;fontSize=16;" vertex="1" parent="Dh3Wkr0duwVxWGDyfR0f-79">
          <mxGeometry width="93" height="43" as="geometry">
            <mxRectangle width="93" height="43" as="alternateBounds" />
          </mxGeometry>
        </mxCell>
        <mxCell id="Dh3Wkr0duwVxWGDyfR0f-81" value="&lt;b&gt;pcx-ertsah4&lt;/b&gt;" style="shape=partialRectangle;html=1;whiteSpace=wrap;connectable=0;strokeColor=inherit;overflow=hidden;fillColor=none;top=0;left=0;bottom=0;right=0;pointerEvents=1;fontSize=16;" vertex="1" parent="Dh3Wkr0duwVxWGDyfR0f-79">
          <mxGeometry x="93" width="94" height="43" as="geometry">
            <mxRectangle width="94" height="43" as="alternateBounds" />
          </mxGeometry>
        </mxCell>
        <mxCell id="Dh3Wkr0duwVxWGDyfR0f-82" value="" style="shape=partialRectangle;html=1;whiteSpace=wrap;connectable=0;strokeColor=inherit;overflow=hidden;fillColor=none;top=0;left=0;bottom=0;right=0;pointerEvents=1;fontSize=16;" vertex="1" parent="Dh3Wkr0duwVxWGDyfR0f-79">
          <mxGeometry x="187" width="93" height="43" as="geometry">
            <mxRectangle width="93" height="43" as="alternateBounds" />
          </mxGeometry>
        </mxCell>
        <mxCell id="Dh3Wkr0duwVxWGDyfR0f-83" value="" style="shape=tableRow;horizontal=0;startSize=0;swimlaneHead=0;swimlaneBody=0;strokeColor=inherit;top=0;left=0;bottom=0;right=0;collapsible=0;dropTarget=0;fillColor=none;points=[[0,0.5],[1,0.5]];portConstraint=eastwest;fontSize=16;" vertex="1" parent="Dh3Wkr0duwVxWGDyfR0f-74">
          <mxGeometry y="90" width="280" height="57" as="geometry" />
        </mxCell>
        <mxCell id="Dh3Wkr0duwVxWGDyfR0f-84" value="&lt;b&gt;&lt;font style=&quot;font-size: 15px;&quot;&gt;172.31.0.0/16&lt;/font&gt;&lt;/b&gt;" style="shape=partialRectangle;html=1;whiteSpace=wrap;connectable=0;strokeColor=inherit;overflow=hidden;fillColor=none;top=0;left=0;bottom=0;right=0;pointerEvents=1;fontSize=16;" vertex="1" parent="Dh3Wkr0duwVxWGDyfR0f-83">
          <mxGeometry width="93" height="57" as="geometry">
            <mxRectangle width="93" height="57" as="alternateBounds" />
          </mxGeometry>
        </mxCell>
        <mxCell id="Dh3Wkr0duwVxWGDyfR0f-85" value="lcoal" style="shape=partialRectangle;html=1;whiteSpace=wrap;connectable=0;strokeColor=inherit;overflow=hidden;fillColor=none;top=0;left=0;bottom=0;right=0;pointerEvents=1;fontSize=16;" vertex="1" parent="Dh3Wkr0duwVxWGDyfR0f-83">
          <mxGeometry x="93" width="94" height="57" as="geometry">
            <mxRectangle width="94" height="57" as="alternateBounds" />
          </mxGeometry>
        </mxCell>
        <mxCell id="Dh3Wkr0duwVxWGDyfR0f-86" value="" style="shape=partialRectangle;html=1;whiteSpace=wrap;connectable=0;strokeColor=inherit;overflow=hidden;fillColor=none;top=0;left=0;bottom=0;right=0;pointerEvents=1;fontSize=16;" vertex="1" parent="Dh3Wkr0duwVxWGDyfR0f-83">
          <mxGeometry x="187" width="93" height="57" as="geometry">
            <mxRectangle width="93" height="57" as="alternateBounds" />
          </mxGeometry>
        </mxCell>
      </root>
    </mxGraphModel>
  </diagram>
</mxfile>
